<?xml version="1.0" encoding="utf-8"?>
<!-- Generator: Adobe Illustrator 24.0.0, SVG Export Plug-In . SVG Version: 6.00 Build 0)  -->
<svg version="1.1" id="Layer_1" xmlns="http://www.w3.org/2000/svg" xmlns:xlink="http://www.w3.org/1999/xlink" x="0px" y="0px"
	 viewBox="0 0 859 613" style="enable-background:new 0 0 859 613;" xml:space="preserve">
<style type="text/css">
	.st0{fill:#FFFFFF;}
	.st1{fill:none;stroke:#261175;stroke-miterlimit:10;}
	.st2{fill:none;stroke:#1F197E;stroke-width:0.8125;stroke-miterlimit:10;}
	.st3{fill:none;stroke:#182087;stroke-width:0.625;stroke-miterlimit:10;}
	.st4{fill:none;stroke:#112890;stroke-width:0.4375;stroke-miterlimit:10;}
	.st5{fill:none;stroke:#0A2F99;stroke-width:0.25;stroke-miterlimit:10;}
	.st6{clip-path:url(#SVGID_2_);}
	.st7{fill:#262262;}
	.st8{opacity:0.4;fill:url(#SVGID_3_);enable-background:new    ;}
	.st9{fill:#BF1E2E;}
	.st10{opacity:0.2;fill:url(#SVGID_4_);enable-background:new    ;}
	.st11{opacity:0.2;fill:url(#SVGID_5_);enable-background:new    ;}
	.st12{clip-path:url(#SVGID_7_);}
	.st13{opacity:0.5;fill:url(#SVGID_8_);enable-background:new    ;}
	.st14{opacity:0.4;fill:url(#SVGID_9_);enable-background:new    ;}
	.st15{fill:#303030;}
	.st16{font-family:'ArialMT';}
	.st17{font-size:46.3052px;}
	.st18{font-size:14px;}
	.st19{font-size:21.6091px;}
	.st20{fill:none;}
	.st21{font-family:'SFProDisplay-Regular';}
	.st22{fill:#333333;}
	.st23{font-family:'SFProText-Medium';}
	.st24{font-size:12px;}
	.st25{fill:none;stroke:url(#SVGID_10_);stroke-width:0.5;stroke-miterlimit:10;}
	.st26{fill:none;stroke:url(#SVGID_11_);stroke-width:0.5;stroke-miterlimit:10;}
	.st27{fill:none;stroke:url(#SVGID_12_);stroke-width:0.5;stroke-miterlimit:10;}
	.st28{font-size:72px;}
	.st29{fill:url(#SVGID_13_);}
	.st30{fill:url(#SVGID_14_);}
	.st31{fill:url(#SVGID_15_);}
	.st32{fill:url(#SVGID_16_);}
	.st33{fill:url(#SVGID_17_);}
	.st34{fill:url(#SVGID_18_);}
	.st35{fill:none;stroke:url(#SVGID_19_);stroke-width:0.15;stroke-miterlimit:10;}
	.st36{fill:none;stroke:url(#SVGID_20_);stroke-width:0.15;stroke-miterlimit:10;}
	.st37{fill:none;stroke:url(#SVGID_21_);stroke-width:0.15;stroke-miterlimit:10;}
	.st38{fill:none;stroke:url(#SVGID_22_);stroke-width:0.15;stroke-miterlimit:10;}
</style>
<g>
	<rect x="0.5" y="0.5" class="st0" width="858.9" height="612.3"/>
	<g>
		<g>
			<path class="st1" d="M812.3,47.6v518.1H47.6V47.6H812.3z"/>
			<path class="st2" d="M806.5,52.7v507.8H53.4V52.7H806.5"/>
			<path class="st3" d="M800.7,57.9v497.5H59.2V57.9H800.7"/>
			<path class="st4" d="M794.9,63v487.2H65V63H794.9"/>
			<path class="st5" d="M789.1,68.2v476.9H70.8V68.2H789.1"/>
		</g>
	</g>
	<g>
		<g>
			<g>
				<g>
					<g>
						<g>
							<g>
								<defs>
									<rect id="SVGID_1_" x="0.5" y="0.5" width="858.9" height="612.3"/>
								</defs>
								<clipPath id="SVGID_2_">
									<use xlink:href="#SVGID_1_"  style="overflow:visible;"/>
								</clipPath>
								<g class="st6">
									<g>
										
											<image style="overflow:visible;opacity:0.3;enable-background:new    ;" width="652" height="238" xlink:href="FB5B761AF34D672A.png"  transform="matrix(1 0 0 1 280 -47)">
										</image>
										<g>
											<g>
												<path class="st7" d="M899.4,181.2c-28.7-24.8-60.1-46.5-93.2-64.9c-35-19.4-71.9-35.2-109.9-47.4
													C656.6,56.1,615.8,47.2,574.5,42c-45.4-5.7-91.2-7-136.9-4.5c-45.6,2.5-91,8.7-135.7,18.1c-5.4,1.1-10.7,2.3-16,3.5
													c9.8-19.7,19.6-39.4,29.4-59c4.8-9.7,9.4-19.5,14.5-29c2.6-4.8,6-8.2,11.6-9c5.3-0.7,10.7-0.5,16-0.6
													c44.5-1.2,89-2.4,133.5-3.3c44.5-0.9,89-1.6,133.5-1.8c44.7-0.2,89.4,0.1,134.1,1c44.5,1,89,2.7,133.4,5.3
													c5.3,0.3,10.6,0.6,16,1C908.6,36.2,905.8,108.8,899.4,181.2z"/>
												
													<linearGradient id="SVGID_3_" gradientUnits="userSpaceOnUse" x1="897.6916" y1="517.9226" x2="355.9768" y2="551.7168" gradientTransform="matrix(1 0 0 1 0 -534)">
													<stop  offset="0" style="stop-color:#FFFFFF"/>
													<stop  offset="1" style="stop-color:#000000"/>
												</linearGradient>
												<path class="st8" d="M891.9-37.4c-44.4-2.6-88.9-4.3-133.4-5.3c-44.7-1-89.4-1.3-134.1-1c-44.5,0.2-89,0.9-133.5,1.8
													c-44.5,0.9-89,2.1-133.5,3.3c-3.4,0.1-6.9,0-10.4,0.2l8,84.4c1.7-0.3,3.3-0.5,5-0.7C400.6,30.2,686.5-68.9,907.3,40
													c0.6-25.4,0.8-50.9,0.6-76.4C902.6-36.7,897.3-37.1,891.9-37.4z"/>
												<path class="st9" d="M837,112.8c-21.9-12.6-45.3-24.6-68.9-34.3c-34.5-14.1-69.5-27.2-105.9-35.1
													c-36.6-8-74-12.1-111.5-13.6c-22.4-0.9-44.8-0.8-67.2,0c-43.2,1.5-86.4,6.8-128.4,17.2c-3.3,0.8-6.6,1.7-9.9,2.6
													c38.5-12.1,77.9-21.2,117.8-27c42.4-6.2,84.8-7.6,127.5-6.9c42,0.6,84.1,6,124.8,16.4c39.4,10,78.2,23.7,114.7,41.6
													c34,16.7,67.1,36.5,92.4,65.1c0.9,1,1.7,1.9,2.5,2.9c-1.8,5.5-3.6,11-5.4,16.6c-1.4,4.3-2.8,8.7-4.2,13
													c1-3.3-15.6-15.8-17.9-17.9c-10.7-9.6-21.9-17.5-34.2-25.1C854.6,123.1,845.9,117.9,837,112.8z"/>
											</g>
										</g>
									</g>
									<g>
										
											<image style="overflow:visible;opacity:0.3;enable-background:new    ;" width="715" height="175" xlink:href="FB5B761AF34D672E.png"  transform="matrix(1 0 0 1 -17 -60)">
										</image>
										<g>
											<g>
												<path class="st9" d="M628.6-36.2c-16.1,2.9-32.1,6.3-48,10.1c-6,1.4-12,2.9-18,4.4C532.4-14,503.1-2.9,473.8,7.5
													C423.3,25.5,373.1,44.6,322,61c-67.2,21.6-136.4,38.4-207,43.1c-20.7,1.4-41.4,1.8-62.1,1.4
													c-10.5-0.2-21.1-0.7-31.6-1.4c-9.3-0.6-19-0.3-27.8-4.2c-3.5-21.2-4-43.3-4.8-64.8c-0.5-15.8-0.7-31.5-0.4-47.3
													c0.1-7.8,0.3-15.5,0.7-23.2c0.1-3.5-0.5-8.2,0.5-11.6c0.6-2.1,2-1.7,4-1.9c2.1-0.1,4.1-0.3,6.2-0.4
													c62.9-4.2,126.1-5.6,189.1-5.5c62.9,0.1,125.8,1.6,188.7,3.1c63.1,1.5,126.3,3.1,189.4,3.2c9.4,0,18.9,0,28.3-0.1
													c16-0.1,32-0.3,48-0.6c8-0.2,16-0.4,24-0.6c5.1-0.2,10.2-0.7,15.3-0.9c2-0.1,8.4-1.7,8.1,1.9c-0.4,4-4.9,4.3-7.9,4.5
													s-5.9,0.6-8.9,1C658.8-41.5,643.6-38.9,628.6-36.2z"/>
												<path class="st7" d="M636.2-39.7c-52.8,8.9-104.5,23.5-155.5,39.6C430,16,379.9,33.8,329,49.5
													c-50.6,15.6-102.1,29.2-154.5,37.2C121.9,94.6,68,96.5,15.3,88.3C11.8,87.7-1.4,84-4.9,83.4c0.2-47.2-4.4-92.8,0-139.8
													c96.5,0,209.5,2.4,306,4c96.2,1.6,192.3,4,288.5,7.2c22.3,0.7,44.6,1.5,66.9,2.4C649.7-41.9,643-40.8,636.2-39.7z"/>
												
													<linearGradient id="SVGID_4_" gradientUnits="userSpaceOnUse" x1="7.6289" y1="520.7219" x2="330.0404" y2="528.1534" gradientTransform="matrix(1 0 0 1 0 -534)">
													<stop  offset="0" style="stop-color:#FFFFFF"/>
													<stop  offset="1" style="stop-color:#000000"/>
												</linearGradient>
												<path class="st10" d="M193.4,32.4C445.5,4.8,457.6-42.5,656.5-42.8c-22.3-0.8-44.6-1.6-66.9-2.4
													c-96.1-3.2-192.3-5.6-288.5-7.2c-96.4-1.6-209.5-4-306-4C-6.9-34.6-7-13.2-6.6,8.3C23,22.9,86.6,44,193.4,32.4z"/>
												
													<linearGradient id="SVGID_5_" gradientUnits="userSpaceOnUse" x1="144.5436" y1="531.4639" x2="618.3307" y2="439.8684" gradientTransform="matrix(1 0 0 1 0 -534)">
													<stop  offset="0" style="stop-color:#FFFFFF"/>
													<stop  offset="1" style="stop-color:#000000"/>
												</linearGradient>
												<path class="st11" d="M282.1,46C439,1,575.5-39.7,656.5-42.8c-22.3-0.8-44.6-1.6-66.9-2.4
													c-96.1-3.2-192.3-5.6-288.5-7.2c-96.4-1.6-192.9-2.4-289.4-2.4C8.4-18.6,6.2,17.8,5.4,54.1
													C32.3,59.2,119.8,92.5,282.1,46z"/>
											</g>
										</g>
									</g>
								</g>
							</g>
						</g>
					</g>
				</g>
			</g>
		</g>
		<g>
			<g>
				<g>
					<g>
						<g>
							<g>
								<defs>
									<rect id="SVGID_6_" x="0.5" y="0.5" width="858.9" height="612.3"/>
								</defs>
								<clipPath id="SVGID_7_">
									<use xlink:href="#SVGID_6_"  style="overflow:visible;"/>
								</clipPath>
								<g class="st12">
									
										<image style="overflow:visible;opacity:0.3;enable-background:new    ;" width="941" height="250" xlink:href="FB5B761AF34D6729.png"  transform="matrix(1 0 0 1 -48 402)">
									</image>
									<g>
										<g>
											<path class="st9" d="M189.9,585.2c0,0,514.9,90.5,691.1-152.3l4.9,213.3H184.3L189.9,585.2z"/>
											<path class="st7" d="M189.9,585.2c0,0,500.1,97.7,690.5-131.4l5.5,192.5H184.3L189.9,585.2z"/>
											
												<linearGradient id="SVGID_8_" gradientUnits="userSpaceOnUse" x1="702.1929" y1="1097.4591" x2="358.2991" y2="1098.7118" gradientTransform="matrix(1 0 0 1 0 -534)">
												<stop  offset="0" style="stop-color:#FFFFFF"/>
												<stop  offset="1" style="stop-color:#000000"/>
											</linearGradient>
											<path class="st13" d="M189.9,585.2c0,0,504.4,103.2,690.5-105.9l5.5,167H184.3L189.9,585.2z"/>
											<path class="st9" d="M472.2,643.8l-514.5-22.1l7.4-212.4c0,0,41,58.6,129.4,117.5c124.3,82.9,386.4,87.7,386.4,87.7
												L472.2,643.8z"/>
											<path class="st7" d="M508,646.2H-7l-1.7-173.7c0,0,25.8,28,70.9,56.7c80.4,51.1,179.6,73.7,272.9,82.2
												c92.7,8.4,180.4,5.1,180.4,5.1L508,646.2z"/>
											
												<linearGradient id="SVGID_9_" gradientUnits="userSpaceOnUse" x1="-5.3239" y1="1100.6536" x2="466.9343" y2="1218.3596" gradientTransform="matrix(1 0 0 1 0 -534)">
												<stop  offset="0" style="stop-color:#FFFFFF"/>
												<stop  offset="1" style="stop-color:#000000"/>
											</linearGradient>
											<path class="st14" d="M508,646.2H-7l-1.7-106.7c171.2,96.3,524.2,77,524.2,77L508,646.2z"/>
										</g>
									</g>
								</g>
							</g>
						</g>
					</g>
				</g>
			</g>
		</g>
	</g>
	<g>
		<text transform="matrix(1 0 0 1 244.4949 145.7682)" class="st15 st16 st17">GIẤY CHỨNG NHẬN</text>
		<text transform="matrix(1 0 0 1 299.3013 92.7682)" class="st15 st16 st18">TRUNG ƯƠNG HỘI THẦY THUỐC TRẺ VIỆT NAM</text>
		<text transform="matrix(1 0 0 1 348.5457 171.236)" class="st15 st16 st19">TÌNH NGUYỆN VIÊN</text>
		<g>
			<rect x="131.1" y="313" class="st20" width="622" height="72"/>
			<text transform="matrix(1 0 0 1 220.0369 322.8897)" class="st21 st18">Hiện đang là Sinh viên lớp </text>
			<text transform="matrix(1 0 0 1 372.8369 322.8897)" class="st16 st18">Y3B</text>
			<text transform="matrix(1 0 0 1 395.2369 322.8897)" class="st21 st18"> trường đại học </text>
			<text transform="matrix(1 0 0 1 485.8369 322.8897)" class="st16 st18">Y dược Huế</text>
			<text transform="matrix(1 0 0 1 552.8369 322.8897)" class="st21 st18">. MSSV </text>
			<text transform="matrix(1 0 0 1 599.1369 322.8897)" class="st16 st18">18Y301167</text>
			<text transform="matrix(1 0 0 1 212.8369 339.6897)" class="st21 st18">Đã tham gia và có nhiều đóng góp cho dự án </text>
			<text transform="matrix(1 0 0 1 474.6369 339.6897)" class="st16 st18">Mạng lưới Thầy thuốc đồng hành.</text>
			<text transform="matrix(1 0 0 1 252.1369 356.4897)" class="st21 st18">Từ ngày </text>
			<text transform="matrix(1 0 0 1 302.9369 356.4897)" class="st16 st18">28</text>
			<text transform="matrix(1 0 0 1 317.3369 356.4897)" class="st21 st18"> tháng </text>
			<text transform="matrix(1 0 0 1 356.9369 356.4897)" class="st16 st18">07 </text>
			<text transform="matrix(1 0 0 1 374.2369 356.4897)" class="st21 st18">với nhiệm vụ là tình nguyện viên </text>
			<text transform="matrix(1 0 0 1 561.8369 356.4897)" class="st16 st18">khu vực 775</text>
			<text transform="matrix(1 0 0 1 632.1369 356.4897)" class="st21 st18"> </text>
		</g>
		<g>
			<rect x="71" y="404.8" class="st20" width="302" height="31.4"/>
			<text transform="matrix(1 0 0 1 100.5652 413.631)" class="st22 st23 st24">Mạng lưới được thành lập và điều phối bởi</text>
			<text transform="matrix(1 0 0 1 85.5652 428.031)" class="st22 st23 st24">The Network is established and coordinated by</text>
		</g>
		
			<linearGradient id="SVGID_10_" gradientUnits="userSpaceOnUse" x1="188.9" y1="805.4" x2="682" y2="805.4" gradientTransform="matrix(1 0 0 1 0 -534)">
			<stop  offset="0" style="stop-color:#FF0000"/>
			<stop  offset="0.5199" style="stop-color:#F15A24"/>
			<stop  offset="0.9594" style="stop-color:#C52C2C"/>
			<stop  offset="1" style="stop-color:#C1272D"/>
		</linearGradient>
		<line class="st25" x1="188.9" y1="271.4" x2="682" y2="271.4"/>
		<g>
			<g>
				<text transform="matrix(1 0 0 1 546.6688 413.6536)" class="st22 st23 st24">Trung ương Hội Thầy thuốc Việt Nam</text>
				<text transform="matrix(1 0 0 1 554.2688 428.0536)" class="st22 st23 st24">Hà Nội, ngày 05 tháng 9 năm 2021</text>
			</g>
			
				<linearGradient id="SVGID_11_" gradientUnits="userSpaceOnUse" x1="605" y1="973.4" x2="701.3" y2="973.4" gradientTransform="matrix(1 0 0 1 0 -534)">
				<stop  offset="0" style="stop-color:#FF0000"/>
				<stop  offset="0.5199" style="stop-color:#F15A24"/>
				<stop  offset="0.9594" style="stop-color:#C52C2C"/>
				<stop  offset="1" style="stop-color:#C1272D"/>
			</linearGradient>
			<line class="st26" x1="605" y1="439.4" x2="701.3" y2="439.4"/>
		</g>
		
			<linearGradient id="SVGID_12_" gradientUnits="userSpaceOnUse" x1="173.9" y1="973.4" x2="270.1" y2="973.4" gradientTransform="matrix(1 0 0 1 0 -534)">
			<stop  offset="0" style="stop-color:#FF0000"/>
			<stop  offset="0.5199" style="stop-color:#F15A24"/>
			<stop  offset="0.9594" style="stop-color:#C52C2C"/>
			<stop  offset="1" style="stop-color:#C1272D"/>
		</linearGradient>
		<line class="st27" x1="173.9" y1="439.4" x2="270.1" y2="439.4"/>
		<rect x="63" y="214" class="st20" width="733" height="107"/>
		<rect x="70.8" y="203" class="st20" width="725.2" height="89"/>
		<text transform="matrix(1 0 0 1 15.5023 247.4999)" text-anchor="middle" x="50%" class="st16 st28">{{{name}}}</text>
	</g>
	<g>
		<g>
			
				<image style="overflow:visible;opacity:0.3;enable-background:new    ;" width="47" height="105" xlink:href="FB5B761AF34D672B.png"  transform="matrix(0.9885 0 0 0.9885 34.2697 66.6025)">
			</image>
			<g>
				
					<linearGradient id="SVGID_13_" gradientUnits="userSpaceOnUse" x1="57.7547" y1="640.8029" x2="33.5847" y2="794.1323" gradientTransform="matrix(1 0 0 1 0 -534)">
					<stop  offset="0" style="stop-color:#FA9C0B"/>
					<stop  offset="0.1233" style="stop-color:#FFC40F"/>
					<stop  offset="0.2992" style="stop-color:#FFD53E"/>
					<stop  offset="0.6184" style="stop-color:#FFF79B"/>
					<stop  offset="0.6494" style="stop-color:#F9EF94"/>
					<stop  offset="0.6982" style="stop-color:#E9D880"/>
					<stop  offset="0.7588" style="stop-color:#CFB35F"/>
					<stop  offset="0.828" style="stop-color:#AB8132"/>
					<stop  offset="0.895" style="stop-color:#844900"/>
					<stop  offset="0.9177" style="stop-color:#874B00"/>
					<stop  offset="0.9366" style="stop-color:#925301"/>
					<stop  offset="0.9542" style="stop-color:#A35F03"/>
					<stop  offset="0.9709" style="stop-color:#BB7005"/>
					<stop  offset="0.9869" style="stop-color:#DA8608"/>
					<stop  offset="1" style="stop-color:#FA9C0B"/>
				</linearGradient>
				<polygon class="st29" points="74.1,73.5 49.5,70.4 38.1,161.1 51.1,156.8 62.7,164.2 				"/>
			</g>
		</g>
		<g>
			
				<image style="overflow:visible;opacity:0.3;enable-background:new    ;" width="47" height="105" xlink:href="FB5B761AF34D6728.png"  transform="matrix(0.9885 0 0 0.9885 54.2697 66.6025)">
			</image>
			<g>
				
					<linearGradient id="SVGID_14_" gradientUnits="userSpaceOnUse" x1="75.8641" y1="639.3949" x2="79.2631" y2="759.8684" gradientTransform="matrix(1 0 0 1 0 -534)">
					<stop  offset="0" style="stop-color:#FA9C0B"/>
					<stop  offset="0.1233" style="stop-color:#FFC40F"/>
					<stop  offset="0.2992" style="stop-color:#FFD53E"/>
					<stop  offset="0.6184" style="stop-color:#FFF79B"/>
					<stop  offset="0.6494" style="stop-color:#F9EF94"/>
					<stop  offset="0.6982" style="stop-color:#E9D880"/>
					<stop  offset="0.7588" style="stop-color:#CFB35F"/>
					<stop  offset="0.828" style="stop-color:#AB8132"/>
					<stop  offset="0.895" style="stop-color:#844900"/>
					<stop  offset="0.9177" style="stop-color:#874B00"/>
					<stop  offset="0.9366" style="stop-color:#925301"/>
					<stop  offset="0.9542" style="stop-color:#A35F03"/>
					<stop  offset="0.9709" style="stop-color:#BB7005"/>
					<stop  offset="0.9869" style="stop-color:#DA8608"/>
					<stop  offset="1" style="stop-color:#FA9C0B"/>
				</linearGradient>
				<polygon class="st30" points="58.2,73.5 82.8,70.4 94.2,161.1 81.2,156.8 69.6,164.2 				"/>
			</g>
		</g>
		<g>
			
				<image style="overflow:visible;opacity:0.3;enable-background:new    ;" width="104" height="103" xlink:href="FB5B761AF34D6736.png"  transform="matrix(0.9903 0 0 0.9903 15.5024 11.4976)">
			</image>
			<g>
				<g>
					
						<linearGradient id="SVGID_15_" gradientUnits="userSpaceOnUse" x1="40.281" y1="631.4039" x2="174.8517" y2="437.2966" gradientTransform="matrix(1 0 0 1 0 -534)">
						<stop  offset="0" style="stop-color:#FA9C0B"/>
						<stop  offset="0.1233" style="stop-color:#FFC40F"/>
						<stop  offset="0.2992" style="stop-color:#FFD53E"/>
						<stop  offset="0.6184" style="stop-color:#FFF79B"/>
						<stop  offset="0.6494" style="stop-color:#F9EF94"/>
						<stop  offset="0.6982" style="stop-color:#E9D880"/>
						<stop  offset="0.7588" style="stop-color:#CFB35F"/>
						<stop  offset="0.828" style="stop-color:#AB8132"/>
						<stop  offset="0.895" style="stop-color:#844900"/>
						<stop  offset="0.9177" style="stop-color:#874B00"/>
						<stop  offset="0.9366" style="stop-color:#925301"/>
						<stop  offset="0.9542" style="stop-color:#A35F03"/>
						<stop  offset="0.9709" style="stop-color:#BB7005"/>
						<stop  offset="0.9869" style="stop-color:#DA8608"/>
						<stop  offset="1" style="stop-color:#FA9C0B"/>
					</linearGradient>
					<path class="st31" d="M70.7,16.1L70.7,16.1c7.8-1.8,15.9,1.1,20.7,7.6l0,0c1.9,2.5,4.3,4.5,7,5.9l0,0
						c7.1,3.6,11.5,11.1,11,19.1l0,0c-0.2,3.1,0.4,6.2,1.6,9l0,0c3.1,7.4,1.6,15.9-3.8,21.7l0,0c-2.1,2.3-3.7,5-4.6,7.9l0,0
						c-2.3,7.7-9,13.2-16.9,14.2l0,0c-3.1,0.4-6,1.4-8.6,3.1l0,0c-6.7,4.4-15.4,4.4-22.1,0l0,0c-2.6-1.7-5.5-2.8-8.6-3.1l0,0
						c-8-1-14.6-6.5-16.9-14.2l0,0c-0.9-3-2.5-5.7-4.6-7.9l0,0c-5.5-5.8-7-14.4-3.8-21.7l0,0c1.2-2.8,1.8-5.9,1.6-9l0,0
						c-0.4-8,3.9-15.5,11-19.1l0,0c2.8-1.4,5.2-3.4,7-5.9l0,0c4.8-6.4,12.9-9.4,20.7-7.6l0,0C64.6,16.8,67.7,16.8,70.7,16.1z"/>
					
						<linearGradient id="SVGID_16_" gradientUnits="userSpaceOnUse" x1="90.7263" y1="560.4384" x2="3.8804" y2="680.6064" gradientTransform="matrix(1 0 0 1 0 -534)">
						<stop  offset="0" style="stop-color:#FA9C0B"/>
						<stop  offset="0.1233" style="stop-color:#FFC40F"/>
						<stop  offset="0.2992" style="stop-color:#FFD53E"/>
						<stop  offset="0.6184" style="stop-color:#FFF79B"/>
						<stop  offset="0.6494" style="stop-color:#F9EF94"/>
						<stop  offset="0.6982" style="stop-color:#E9D880"/>
						<stop  offset="0.7588" style="stop-color:#CFB35F"/>
						<stop  offset="0.828" style="stop-color:#AB8132"/>
						<stop  offset="0.895" style="stop-color:#844900"/>
						<stop  offset="0.9177" style="stop-color:#874B00"/>
						<stop  offset="0.9366" style="stop-color:#925301"/>
						<stop  offset="0.9542" style="stop-color:#A35F03"/>
						<stop  offset="0.9709" style="stop-color:#BB7005"/>
						<stop  offset="0.9869" style="stop-color:#DA8608"/>
						<stop  offset="1" style="stop-color:#FA9C0B"/>
					</linearGradient>
					<path class="st32" d="M70.5,18.4L70.5,18.4c7.4-1.7,15.1,1.1,19.7,7.2l0,0c1.8,2.4,4,4.3,6.7,5.6l0,0
						c6.8,3.4,10.9,10.6,10.5,18.2l0,0c-0.2,2.9,0.4,5.9,1.5,8.6l0,0c3,7,1.6,15.1-3.6,20.6l0,0c-2,2.1-3.5,4.7-4.4,7.5l0,0
						c-2.2,7.3-8.5,12.6-16.1,13.5l0,0c-2.9,0.4-5.7,1.4-8.2,3l0,0c-6.4,4.2-14.6,4.2-21,0l0,0c-2.5-1.6-5.3-2.6-8.2-3l0,0
						c-7.5-0.9-13.8-6.2-16.1-13.5l0,0c-0.9-2.8-2.3-5.4-4.4-7.5l0,0C21.7,73,20.3,65,23.3,58l0,0c1.2-2.7,1.7-5.6,1.5-8.6l0,0
						c-0.4-7.6,3.7-14.7,10.5-18.2l0,0c2.6-1.3,4.9-3.2,6.7-5.6l0,0c4.6-6.1,12.3-8.9,19.7-7.2l0,0C64.7,19,67.6,19,70.5,18.4z"/>
					<g>
						
							<image style="overflow:visible;opacity:0.3;enable-background:new    ;" width="54" height="52" xlink:href="FB5B761AF34D6739.png"  transform="matrix(0.9811 0 0 0.9811 40.5093 37.4904)">
						</image>
						<g>
							<g>
								
									<linearGradient id="SVGID_17_" gradientUnits="userSpaceOnUse" x1="51.4365" y1="615.5184" x2="104.4964" y2="555.9042" gradientTransform="matrix(1 0 0 1 0 -534)">
									<stop  offset="0" style="stop-color:#FA9C0B"/>
									<stop  offset="0.1233" style="stop-color:#FFC40F"/>
									<stop  offset="0.2992" style="stop-color:#FFD53E"/>
									<stop  offset="0.6184" style="stop-color:#FFF79B"/>
									<stop  offset="0.6494" style="stop-color:#F9EF94"/>
									<stop  offset="0.6982" style="stop-color:#E9D880"/>
									<stop  offset="0.7588" style="stop-color:#CFB35F"/>
									<stop  offset="0.828" style="stop-color:#AB8132"/>
									<stop  offset="0.895" style="stop-color:#844900"/>
									<stop  offset="0.9177" style="stop-color:#874B00"/>
									<stop  offset="0.9366" style="stop-color:#925301"/>
									<stop  offset="0.9542" style="stop-color:#A35F03"/>
									<stop  offset="0.9709" style="stop-color:#BB7005"/>
									<stop  offset="0.9869" style="stop-color:#DA8608"/>
									<stop  offset="1" style="stop-color:#FA9C0B"/>
								</linearGradient>
								<polygon class="st33" points="72.9,54.7 66.2,41 59.4,54.7 44.4,56.9 55.3,67.5 52.7,82.4 66.2,75.4 79.6,82.4 77,67.5 
									87.9,56.9 								"/>
								
									<linearGradient id="SVGID_18_" gradientUnits="userSpaceOnUse" x1="78.906" y1="580.7433" x2="23.0615" y2="656.3126" gradientTransform="matrix(1 0 0 1 0 -534)">
									<stop  offset="0" style="stop-color:#FA9C0B"/>
									<stop  offset="0.1233" style="stop-color:#FFC40F"/>
									<stop  offset="0.2992" style="stop-color:#FFD53E"/>
									<stop  offset="0.6184" style="stop-color:#FFF79B"/>
									<stop  offset="0.6494" style="stop-color:#F9EF94"/>
									<stop  offset="0.6982" style="stop-color:#E9D880"/>
									<stop  offset="0.7588" style="stop-color:#CFB35F"/>
									<stop  offset="0.828" style="stop-color:#AB8132"/>
									<stop  offset="0.895" style="stop-color:#844900"/>
									<stop  offset="0.9177" style="stop-color:#874B00"/>
									<stop  offset="0.9366" style="stop-color:#925301"/>
									<stop  offset="0.9542" style="stop-color:#A35F03"/>
									<stop  offset="0.9709" style="stop-color:#BB7005"/>
									<stop  offset="0.9869" style="stop-color:#DA8608"/>
									<stop  offset="1" style="stop-color:#FA9C0B"/>
								</linearGradient>
								<polygon class="st34" points="72.6,55 66.2,41.9 59.7,55 45.3,57.1 55.7,67.2 53.2,81.6 66.2,74.8 79.1,81.6 76.6,67.2 
									87,57.1 								"/>
							</g>
						</g>
					</g>
					<g>
						
							<linearGradient id="SVGID_19_" gradientUnits="userSpaceOnUse" x1="23.8925" y1="595.6988" x2="108.4192" y2="595.6988" gradientTransform="matrix(1 0 0 1 0 -534)">
							<stop  offset="0" style="stop-color:#FA9C0B"/>
							<stop  offset="0.1233" style="stop-color:#FFC40F"/>
							<stop  offset="0.2992" style="stop-color:#FFD53E"/>
							<stop  offset="0.6184" style="stop-color:#FFF79B"/>
							<stop  offset="0.6494" style="stop-color:#F9EF94"/>
							<stop  offset="0.6982" style="stop-color:#E9D880"/>
							<stop  offset="0.7588" style="stop-color:#CFB35F"/>
							<stop  offset="0.828" style="stop-color:#AB8132"/>
							<stop  offset="0.895" style="stop-color:#844900"/>
							<stop  offset="0.9177" style="stop-color:#874B00"/>
							<stop  offset="0.9366" style="stop-color:#925301"/>
							<stop  offset="0.9542" style="stop-color:#A35F03"/>
							<stop  offset="0.9709" style="stop-color:#BB7005"/>
							<stop  offset="0.9869" style="stop-color:#DA8608"/>
							<stop  offset="1" style="stop-color:#FA9C0B"/>
						</linearGradient>
						<path class="st35" d="M70.3,20.4L70.3,20.4c7.1-1.6,14.4,1,18.8,6.8l0,0c1.7,2.2,3.9,4.1,6.4,5.3l0,0
							c6.5,3.3,10.4,10.1,10,17.3l0,0c-0.2,2.8,0.3,5.6,1.4,8.2l0,0c2.8,6.7,1.5,14.4-3.5,19.7l0,0c-1.9,2-3.3,4.5-4.2,7.2l0,0
							c-2.1,6.9-8.1,12-15.3,12.8l0,0c-2.8,0.3-5.5,1.3-7.8,2.8l0,0c-6.1,4-13.9,4-20,0l0,0c-2.3-1.5-5-2.5-7.8-2.8l0,0
							c-7.2-0.9-13.2-5.9-15.3-12.8l0,0c-0.8-2.7-2.2-5.1-4.2-7.2l0,0c-5-5.3-6.3-13-3.5-19.7l0,0c1.1-2.6,1.6-5.4,1.4-8.2l0,0
							c-0.4-7.2,3.5-14,10-17.3l0,0c2.5-1.3,4.7-3.1,6.4-5.3l0,0c4.4-5.8,11.7-8.5,18.8-6.8l0,0C64.7,21,67.6,21,70.3,20.4z"/>
						
							<linearGradient id="SVGID_20_" gradientUnits="userSpaceOnUse" x1="27.6294" y1="595.83" x2="104.6822" y2="595.83" gradientTransform="matrix(1 0 0 1 0 -534)">
							<stop  offset="0" style="stop-color:#FA9C0B"/>
							<stop  offset="0.1233" style="stop-color:#FFC40F"/>
							<stop  offset="0.2992" style="stop-color:#FFD53E"/>
							<stop  offset="0.6184" style="stop-color:#FFF79B"/>
							<stop  offset="0.6494" style="stop-color:#F9EF94"/>
							<stop  offset="0.6982" style="stop-color:#E9D880"/>
							<stop  offset="0.7588" style="stop-color:#CFB35F"/>
							<stop  offset="0.828" style="stop-color:#AB8132"/>
							<stop  offset="0.895" style="stop-color:#844900"/>
							<stop  offset="0.9177" style="stop-color:#874B00"/>
							<stop  offset="0.9366" style="stop-color:#925301"/>
							<stop  offset="0.9542" style="stop-color:#A35F03"/>
							<stop  offset="0.9709" style="stop-color:#BB7005"/>
							<stop  offset="0.9869" style="stop-color:#DA8608"/>
							<stop  offset="1" style="stop-color:#FA9C0B"/>
						</linearGradient>
						<path class="st36" d="M69.9,24.1L69.9,24.1C76.3,22.6,83,25,87,30.3l0,0c1.5,2,3.5,3.7,5.8,4.9l0,0c5.9,3,9.5,9.2,9.1,15.8
							l0,0c-0.1,2.6,0.3,5.1,1.3,7.5l0,0c2.6,6.1,1.4,13.1-3.2,17.9l0,0c-1.7,1.9-3,4.1-3.8,6.6l0,0c-1.9,6.3-7.4,10.9-14,11.7l0,0
							c-2.5,0.3-5,1.2-7.1,2.6l0,0c-5.5,3.6-12.7,3.6-18.2,0l0,0c-2.1-1.4-4.6-2.3-7.1-2.6l0,0c-6.6-0.8-12-5.4-14-11.7l0,0
							c-0.7-2.4-2-4.7-3.8-6.6l0,0c-4.5-4.8-5.8-11.9-3.2-17.9l0,0c1-2.3,1.5-4.9,1.3-7.5l0,0c-0.4-6.6,3.2-12.8,9.1-15.8l0,0
							c2.3-1.2,4.3-2.8,5.8-4.9l0,0c4-5.3,10.7-7.7,17.1-6.2l0,0C64.9,24.6,67.4,24.6,69.9,24.1z"/>
						
							<linearGradient id="SVGID_21_" gradientUnits="userSpaceOnUse" x1="26.3341" y1="595.6491" x2="106.0659" y2="595.6491" gradientTransform="matrix(1 0 0 1 0 -534)">
							<stop  offset="0" style="stop-color:#FA9C0B"/>
							<stop  offset="0.1233" style="stop-color:#FFC40F"/>
							<stop  offset="0.2992" style="stop-color:#FFD53E"/>
							<stop  offset="0.6184" style="stop-color:#FFF79B"/>
							<stop  offset="0.6494" style="stop-color:#F9EF94"/>
							<stop  offset="0.6982" style="stop-color:#E9D880"/>
							<stop  offset="0.7588" style="stop-color:#CFB35F"/>
							<stop  offset="0.828" style="stop-color:#AB8132"/>
							<stop  offset="0.895" style="stop-color:#844900"/>
							<stop  offset="0.9177" style="stop-color:#874B00"/>
							<stop  offset="0.9366" style="stop-color:#925301"/>
							<stop  offset="0.9542" style="stop-color:#A35F03"/>
							<stop  offset="0.9709" style="stop-color:#BB7005"/>
							<stop  offset="0.9869" style="stop-color:#DA8608"/>
							<stop  offset="1" style="stop-color:#FA9C0B"/>
						</linearGradient>
						<path class="st37" d="M70.1,22.7L70.1,22.7c6.7-1.6,13.6,1,17.7,6.4l0,0c1.6,2.1,3.6,3.8,6,5l0,0c6.1,3.1,9.8,9.5,9.4,16.3
							l0,0c-0.1,2.6,0.3,5.3,1.4,7.7l0,0c2.7,6.3,1.4,13.6-3.3,18.6l0,0c-1.8,1.9-3.1,4.3-3.9,6.8l0,0c-2,6.5-7.7,11.3-14.4,12.1
							l0,0c-2.6,0.3-5.1,1.2-7.4,2.7l0,0c-5.7,3.7-13.1,3.7-18.8,0l0,0c-2.2-1.4-4.7-2.4-7.4-2.7l0,0C42.6,94.8,36.9,90,35,83.5l0,0
							c-0.8-2.5-2.1-4.9-3.9-6.8l0,0c-4.7-5-6-12.3-3.3-18.6l0,0c1-2.4,1.5-5.1,1.4-7.7l0,0c-0.4-6.8,3.3-13.2,9.4-16.3l0,0
							c2.4-1.2,4.4-2.9,6-5l0,0c4.1-5.5,11.1-8,17.7-6.4l0,0C64.8,23.3,67.5,23.3,70.1,22.7z"/>
						
							<linearGradient id="SVGID_22_" gradientUnits="userSpaceOnUse" x1="25.2383" y1="595.8421" x2="107.2061" y2="595.8421" gradientTransform="matrix(1 0 0 1 0 -534)">
							<stop  offset="0" style="stop-color:#FA9C0B"/>
							<stop  offset="0.1233" style="stop-color:#FFC40F"/>
							<stop  offset="0.2992" style="stop-color:#FFD53E"/>
							<stop  offset="0.6184" style="stop-color:#FFF79B"/>
							<stop  offset="0.6494" style="stop-color:#F9EF94"/>
							<stop  offset="0.6982" style="stop-color:#E9D880"/>
							<stop  offset="0.7588" style="stop-color:#CFB35F"/>
							<stop  offset="0.828" style="stop-color:#AB8132"/>
							<stop  offset="0.895" style="stop-color:#844900"/>
							<stop  offset="0.9177" style="stop-color:#874B00"/>
							<stop  offset="0.9366" style="stop-color:#925301"/>
							<stop  offset="0.9542" style="stop-color:#A35F03"/>
							<stop  offset="0.9709" style="stop-color:#BB7005"/>
							<stop  offset="0.9869" style="stop-color:#DA8608"/>
							<stop  offset="1" style="stop-color:#FA9C0B"/>
						</linearGradient>
						<path class="st38" d="M70.2,21.7L70.2,21.7c6.8-1.6,14,1,18.2,6.6l0,0c1.6,2.2,3.7,3.9,6.2,5.2l0,0c6.3,3.2,10.1,9.8,9.7,16.8
							l0,0c-0.1,2.7,0.3,5.4,1.4,7.9l0,0c2.8,6.5,1.4,13.9-3.4,19.1l0,0c-1.9,2-3.2,4.4-4,7l0,0c-2,6.7-7.9,11.6-14.8,12.5l0,0
							c-2.7,0.3-5.3,1.3-7.6,2.8l0,0c-5.9,3.8-13.5,3.8-19.4,0l0,0c-2.3-1.5-4.9-2.4-7.6-2.8l0,0c-7-0.8-12.8-5.7-14.8-12.5l0,0
							c-0.8-2.6-2.2-5-4-7l0,0c-4.8-5.1-6.1-12.6-3.4-19.1l0,0c1.1-2.5,1.5-5.2,1.4-7.9l0,0c-0.4-7,3.4-13.6,9.7-16.8l0,0
							c2.4-1.2,4.5-3,6.2-5.2l0,0c4.2-5.6,11.4-8.2,18.2-6.6l0,0C64.8,22.3,67.5,22.3,70.2,21.7z"/>
					</g>
				</g>
			</g>
		</g>
	</g>
</g>
</svg>
